<svg xmlns="http://www.w3.org/2000/svg" xmlns:xlink="http://www.w3.org/1999/xlink" fill="none" version="1.1" width="2594" height="2594" viewBox="0 0 2594 2594"><rect x="0" y="0" width="2594" height="2594" rx="76" fill="#242020" fill-opacity="1"/><g><path d="M572.496,1508.34601L573.828,1449.07202L573.828,1326.52802Q509.892,1210.64398,436.632,1104.0839799999999Q422.646,1084.104,417.318,1077.444Q411.9899998,1070.784,411.9899998,1068.78598Q411.9899998,1061.45999,424.311001,1057.797Q436.632,1054.134,449.285999,1054.134Q461.940002,1054.134,464.604,1058.13Q469.931999,1066.78799,475.926003,1078.44299Q481.919998,1090.09799,498.23699999999997,1116.73801Q514.554,1143.37799,542.85901,1188.99899Q571.164,1234.62,597.804,1281.23999Q657.078,1184.6699800000001,692.70901,1128.06Q728.3399999999999,1071.44998,736.99802,1055.466Q740.99402,1048.806,752.98199,1048.806Q764.97,1048.806,777.29102,1054.46698Q789.6120000000001,1060.12799,789.6120000000001,1066.12201Q789.6120000000001,1066.78799,788.28,1069.452Q738.33002,1130.05798,641.76001,1291.22998Q627.774,1314.53998,621.78,1325.862L621.78,1449.7379799999999L623.778,1520.3339799999999Q623.778,1526.99402,611.12401,1526.99402Q598.47,1526.99402,585.483,1521.99902Q572.496,1517.00403,572.496,1508.34601Z" fill="#68B871" fill-opacity="1"/><path d="M904.83002,1353.1680000000001Q979.422,1353.1680000000001,1042.69202,1335.8519900000001Q1066.66797,1328.526,1073.66101,1319.86798Q1080.65405,1311.20999,1080.65405,1293.89398Q1080.65405,1235.952,1013.388,1235.952Q967.43402,1235.952,934.13403,1274.24701Q900.83401,1312.54199,891.51001,1353.1680000000001L904.83002,1353.1680000000001ZM841.56,1351.836L847.55402,1351.1699800000001Q857.5440100000001,1298.556,904.83002,1247.94Q952.11603,1197.32401,1014.05402,1197.32401Q1055.34601,1197.32401,1079.98804,1211.97598Q1124.60999,1237.9499799999999,1124.60999,1294.56Q1124.60999,1317.20398,1120.94702,1330.5239900000001Q1117.284,1343.84399,1103.96399,1352.16901Q1090.6440400000001,1360.49402,1060.67401,1369.81799Q994.07397,1390.46399,894.8399999999999,1390.46399L886.18201,1390.46399L886.18201,1397.12399Q886.18201,1440.414,908.49301,1467.05402Q930.80402,1493.69397,968.76599,1493.69397Q1052.68201,1493.69397,1104.63,1437.75Q1113.28802,1427.76001,1119.9479999999999,1427.76001Q1126.6080299999999,1427.76001,1126.6080299999999,1434.75299Q1126.6080299999999,1441.74597,1116.9510500000001,1457.06403Q1107.29401,1472.38202,1087.31396,1490.36401Q1038.69604,1532.9879799999999,964.104,1532.9879799999999Q930.138,1532.9879799999999,902.49902,1516.005Q874.8600200000001,1499.02197,858.87601,1467.05402Q842.892,1435.086,842.892,1391.13L842.892,1381.806Q828.9060099999999,1371.14999,828.9060099999999,1360.49402Q828.9060099999999,1351.836,841.56,1351.836ZM2053.6799,1323.86401Q1997.0699,1192.66199,1969.7639,1120.7340100000001Q1914.486,1243.944,1872.528,1331.19L2053.6799,1323.86401ZM2000.3999,1068.12L1998.402,1081.44Q1998.402,1090.09799,2033.7,1174.67999Q2144.922,1438.4160200000001,2185.548,1497.0239900000001Q2192.874,1507.67999,2192.874,1510.3439899999998Q2192.874,1518.336,2180.886,1522.66498Q2168.8979,1526.99402,2154.246,1526.99402Q2139.594,1526.99402,2136.9299,1519.0020100000002Q2124.276,1481.70599,2109.624,1448.4060100000002L2070.33,1361.82599L1855.2119,1371.14999L1852.548,1371.14999Q1841.892,1393.79401,1831.236,1415.10602L1811.256,1455.0659799999999Q1798.6019,1480.37402,1786.614,1514.3400299999998Q1782.6179,1525.66199,1757.3099,1525.66199Q1732.002,1525.66199,1732.002,1513.008Q1732.002,1509.0120200000001,1734.666,1505.3490000000002Q1737.33,1501.68597,1739.994,1496.6909799999999Q1742.658,1491.69598,1748.985,1479.7080099999998Q1755.312,1467.71997,1768.299,1443.41101Q1781.286,1419.1019900000001,1803.2639,1375.81201L1798.6019,1375.81201Q1790.61,1375.81201,1783.95,1363.491Q1777.2899,1351.1699800000001,1777.2899,1341.17999Q1777.2899,1331.19,1784.616,1331.19L1785.948,1331.19Q1797.9359,1332.522,1811.922,1332.522L1824.5759,1332.522Q1914.486,1152.702,1940.46,1086.1019900000001Q1943.124,1080.108,1944.4559,1067.78699Q1945.788,1055.466,1949.1179,1051.47Q1952.448,1047.474,1962.771,1047.474Q1973.094,1047.474,1985.7479,1053.46799Q1998.402,1059.46201,2000.3999,1068.12Z" fill="#9E9E9E" fill-opacity="1"/><path d="M1653.4141,1070.11798L1650.084,1098.09L1650.084,1102.75198Q1667.4,1267.9199800000001,1693.374,1454.40002Q1696.7041,1481.03998,1706.0281,1508.34601L1706.6941,1511.01001Q1706.6941,1517.6699800000001,1696.0381,1521.3330099999998Q1685.3821,1524.99597,1675.3921,1524.99597Q1651.416,1524.99597,1650.084,1513.67401Q1648.7521,1480.37402,1641.426,1415.10602Q1634.1001,1349.83801,1629.105,1301.88599Q1624.1101,1253.93399,1619.115,1206.6480099999999Q1614.1201,1159.362,1610.124,1118.73599Q1518.2161,1307.88,1477.5901,1413.7739900000001Q1469.598,1434.4199800000001,1469.265,1440.74701Q1468.932,1447.07397,1457.6101,1452.40198Q1446.2881,1457.72998,1436.9641,1457.72998Q1416.984,1457.72998,1414.3201,1447.73999Q1405.662,1419.1019900000001,1396.005,1398.12299Q1386.34802,1377.14398,1345.05603,1274.5800199999999Q1303.76404,1172.0159899999999,1286.4480600000002,1125.396Q1273.79407,1272.5819999999999,1261.14001,1374.81299Q1248.48602,1477.04401,1247.82007,1488.3660300000001Q1247.15405,1499.68799,1245.82202,1513.008Q1245.1560100000002,1519.0020100000002,1235.49902,1522.33197Q1225.84204,1525.66199,1214.52002,1525.66199Q1191.21002,1525.66199,1191.21002,1515.672L1191.21002,1514.3400299999998Q1204.53003,1471.716,1220.8470499999999,1335.186Q1237.16406,1198.65601,1240.16101,1166.35498Q1243.1580199999999,1134.0539899999999,1245.1560100000002,1115.073Q1247.15405,1096.09198,1247.15405,1095.42599L1246.48804,1079.44199L1246.48804,1076.112Q1246.48804,1065.45599,1260.14105,1059.129Q1273.79407,1052.802,1284.7830199999999,1052.802Q1295.77203,1052.802,1299.76807,1056.13199Q1303.76404,1059.46201,1315.08606,1088.10001Q1397.00403,1301.88599,1440.2941,1397.12399Q1512.8881,1220.634,1583.484,1072.78198Q1588.146,1063.45801,1592.1421,1055.133Q1596.1381,1046.80798,1605.462,1046.80798Q1614.786,1046.80798,1625.442,1050.8039899999999Q1653.4141,1060.12799,1653.4141,1070.11798Z" fill="#CE512F" fill-opacity="1"/></g></svg>